<?xml version="1.0" encoding="utf-8"?>
<!DOCTYPE svg PUBLIC "-//W3C//DTD SVG 1.1//EN" "http://www.w3.org/Graphics/SVG/1.1/DTD/svg11.dtd">
<svg version="1.1" xmlns="http://www.w3.org/2000/svg" xmlns:xlink="http://www.w3.org/1999/xlink" x="0px" y="0px" viewBox="0 0 256 256" enable-background="new 0 0 256 256" xml:space="preserve">
<style type="text/css">
.st0{fill:#a2a2a2;}
</style>
<g><g><g><path class="st0" d="M120.3,5.9c-8.4,1.1-19.3,4.6-27.1,8.8c-6.9,3.7-11.4,7.1-16.9,12.6c-7.9,8-10.8,13.6-10.9,21c-0.1,3.6,0.8,7.2,1.7,7.2c0.2,0,2.6-1,5.3-2.3c13.2-6.2,30.2-10.6,46.3-12.1c20.2-1.8,45.1,3,66,12.7c4.5,2.1,4.5,2.1,5.5-2.3c1.5-7.4-2.7-16.6-11.7-25.3c-9.7-9.3-23.1-16.2-37.4-19.3C135.6,5.7,125.7,5.2,120.3,5.9z M134,9c2.8,1.3,5.9,4.9,6.7,7.7c2.1,7.1-0.9,13.6-7.6,16.7c-2.2,1-3.3,1.2-5.9,1c-7.7-0.7-13-6.7-12.5-14.4C115.4,10.5,125.3,4.8,134,9z"/><path class="st0" d="M119.8,45.2c-14,0.9-29.2,4.8-44,11c-3.1,1.3-5.5,2.5-5.5,2.7c0,0.7,8.2,4.1,16.6,7c27.7,9.5,53.6,9.5,81.6,0.2c8-2.7,17.2-6.5,17.2-7.1c0-0.3-2.2-1.3-5-2.5c-15.5-6.6-29.7-10.2-44.9-11.3C128.2,44.6,128.5,44.6,119.8,45.2z"/><path class="st0" d="M76.4,73.8c0,4.4,0,4.6-1.5,5.9c-2,1.6-3,4.4-3.4,9.3c-0.9,11.1,3.9,24.2,12.4,33.3c1.5,1.6,2.5,3.4,3.3,5.9c7.4,22.9,29.4,37.4,49.1,32.5c14.7-3.7,27.4-16.3,32.6-32.5c0.8-2.5,1.8-4.3,3.3-5.9c8.4-9.1,13.3-22.2,12.4-33.3c-0.4-4.9-1.4-7.7-3.4-9.3c-1.4-1.2-1.5-1.4-1.5-5.9c0-2.6-0.2-4.6-0.4-4.6c-0.3,0-4.6,1.4-9.6,3.1c-17,5.7-31.9,7.7-48.7,6.6C107.8,78,93.2,75.1,82.3,71c-2.6-1-5-1.8-5.3-1.8C76.6,69.2,76.4,70.8,76.4,73.8z"/><path class="st0" d="M76.4,150.4c-30.3,12.4-38.8,17-46.8,25.8c-8.6,9.4-15.8,25.5-18.6,41.5c-0.9,5.7-1.3,13.5-0.7,15.2c0.7,1.6,9.1,4.9,20.9,7.9c37.5,9.8,104.3,12.4,158.1,6.3c20.8-2.4,42.5-7.3,53-12c3.8-1.7,4-2.1,3.6-9.7c-0.9-17.5-9.3-38.6-19.8-49.8c-8-8.5-17.4-13.7-47.1-25.7c-5.8-2.4-10.7-4.3-10.8-4.3c-0.1,0-1.4,1.5-2.9,3.4c-2.2,2.9-3.8,6.2-10.8,22.8c-4.5,10.7-8.4,19.7-8.5,19.8c-0.2,0.2-4.2-4.8-9-11.1c-4.7-6.2-8.8-11.4-8.9-11.4s-4.1,5.1-8.9,11.4c-4.8,6.3-8.8,11.3-9,11.1c-0.2-0.2-4-9.1-8.5-19.9c-6.4-15.2-8.7-20.3-10.6-22.8c-1.4-1.8-2.7-3.3-3-3.3C87.6,145.9,82.4,147.9,76.4,150.4z M77.9,157.1c1.2,1.7,2.3,3.1,2.4,3.1c0,0,1.7-0.6,3.5-1.3c1.9-0.7,3.5-1.2,3.7-1c0.2,0.1-0.7,1.6-1.7,3.2c-1.1,1.6-2,3.1-2.1,3.3c0,0.2,0.9,1.6,2.2,3.3c1.3,1.7,2.1,3.1,1.8,3.2c-0.3,0.1-2.1-0.3-3.9-0.9c-2-0.7-3.5-1-3.7-0.7c-0.2,0.3-1.1,1.7-2,3.1c-0.9,1.5-1.9,2.7-2.1,2.7s-0.5-1.7-0.5-3.8v-3.8l-3.6-1.1c-1.9-0.6-3.6-1.2-3.6-1.5c0-0.2,1.5-0.9,3.5-1.6l3.4-1.2l-0.2-4c-0.1-2.2,0.1-3.9,0.3-3.9C75.5,154,76.7,155.4,77.9,157.1z M181.1,157.9l-0.2,4l3.5,1.2c1.9,0.7,3.4,1.4,3.4,1.6c0,0.3-1.6,0.9-3.6,1.5l-3.6,1.1v3.8c0,2.1-0.2,3.8-0.5,3.8s-1.2-1.1-2.1-2.5c-2.4-3.7-2.5-3.8-5.9-2.6c-4.4,1.5-4.7,1.2-2-2.4l2.3-3.2l-2-2.8c-2.2-3.1-2.7-4.2-1.2-3.6c0.9,0.4,6.3,2.3,6.5,2.3c0,0,1.1-1.4,2.3-3.1s2.5-3.1,2.7-3.1S181.2,155.7,181.1,157.9z M57.2,170.8l2.3,3l3.4-1.2c1.9-0.7,3.6-1.2,3.9-1.1c0.3,0.1-0.5,1.5-1.6,3.1c-1.2,1.6-2.1,3.2-2.1,3.5c0,0.3,1,1.8,2.1,3.4c1.2,1.5,2,2.9,1.9,3c-0.2,0.2-1.7-0.2-3.5-0.8c-1.8-0.6-3.4-1-3.6-1c-0.2,0-1.3,1.4-2.5,3.1s-2.4,2.9-2.6,2.8c-0.3-0.2-0.5-1.9-0.5-4v-3.7l-3.6-1c-2-0.6-3.5-1.2-3.4-1.5c0.1-0.3,1.6-1,3.5-1.6l3.3-1.1l0.2-3.9c0.1-2.1,0.3-3.9,0.4-3.9C54.8,167.8,55.9,169.1,57.2,170.8z M205.1,176.7c1.8,0.6,3.4,1.3,3.5,1.6c0.1,0.3-1.4,0.9-3.4,1.5l-3.6,1v3.7c0,2-0.2,3.8-0.5,4c-0.2,0.2-1.4-1.1-2.6-2.8c-1.2-1.7-2.3-3.1-2.5-3.1s-1.8,0.5-3.6,1c-1.8,0.6-3.4,0.9-3.5,0.8c-0.2-0.1,0.7-1.5,1.9-3c1.1-1.5,2.1-3.1,2.1-3.4c0-0.3-0.9-1.9-2.1-3.5c-1.1-1.6-1.8-3-1.6-3.1c0.3-0.1,2,0.4,3.9,1.1l3.4,1.2l2.4-3.2l2.4-3.1l0.3,4l0.3,4L205.1,176.7z"/></g></g></g>
</svg>